<svg width="518" height="416" viewBox="0 0 518 416" fill="none" xmlns="http://www.w3.org/2000/svg">
<path d="M172.371 51.1801C95.0504 95.012 -16.8987 197.992 2.14485 285.365C25.1926 391.147 237.98 463.703 371.812 376.516C473.647 310.166 501.996 237.501 509.008 201.162C515.663 166.793 525.383 98.063 509.008 60.9758C475.132 -15.7508 298.232 -20.1921 172.371 51.1801Z" fill="url(#paint0_linear)"/>
<path d="M317.147 172.363C317.288 177.589 317.147 182.471 316.895 187.509C316.644 192.547 316.299 197.522 315.813 202.545C314.869 212.796 313.021 222.943 310.288 232.868L309.032 236.729L308.718 237.686L308.64 237.937L308.514 238.298L308.122 239.334C307.62 240.531 306.978 241.664 306.207 242.708C304.985 244.404 303.489 245.883 301.781 247.087C300.409 248.092 298.949 248.969 297.418 249.708C292.329 252.09 286.929 253.739 281.377 254.605C271.302 256.257 261.074 256.783 250.882 256.175L250.348 246.161L257.301 244.733C259.64 244.262 262.01 243.682 264.238 243.164C268.837 242.065 273.373 240.888 277.673 239.475C281.655 238.288 285.481 236.628 289.068 234.531C290.034 234.016 290.854 233.266 291.454 232.35C291.454 232.099 291.061 233.15 291.454 231.502L292.223 228.363C294.01 219.324 295.175 210.174 295.707 200.975C296.052 196.267 296.272 191.558 296.492 186.85C296.712 182.141 296.774 177.291 296.837 172.724L317.147 172.363Z" fill="#FFC3BD"/>
<path d="M254.587 246.727L243.601 238.8L240.289 255.516C240.289 255.516 251.119 260.224 254.226 254.731L254.587 246.727Z" fill="#FFC3BD"/>
<path d="M232.457 239.161L230.369 253.114L240.288 255.516L243.584 238.8L232.457 239.161Z" fill="#FFC3BD"/>
<path d="M325.105 158.41C327.506 170.966 317.744 200.457 317.744 200.457L285.977 196.455C290.858 185.28 292.6 169.146 298.752 158.598C304.45 149.134 322.483 144.787 325.105 158.41Z" fill="#FF8B7B"/>
<path d="M370.496 149.401C371.487 149.531 372.443 149.854 373.31 150.354C374.176 150.853 374.935 151.518 375.545 152.311C376.154 153.104 376.601 154.009 376.86 154.975C377.12 155.94 377.186 156.948 377.056 157.939C377.056 158.018 377.056 158.08 377.056 158.143C375.239 170.394 374.143 182.741 373.776 195.121C373.446 205.527 373.572 215.415 373.917 224.361C374.67 245.33 376.554 261.197 376.428 266.659L306.381 272.514C294.123 216.764 298.125 175.518 301.563 160.482C302.093 158.141 303.275 155.998 304.972 154.301C306.669 152.604 308.812 151.422 311.152 150.892C313.836 150.296 317.054 149.652 320.475 149.15C321.668 149.04 322.892 148.82 324.116 148.679C334.208 147.868 344.337 147.638 354.455 147.988C356.37 147.988 358.3 148.161 360.2 148.287C363.888 148.601 367.498 149.009 370.496 149.401Z" fill="#FF8B7B"/>
<path d="M350.72 113.977C348.993 123.755 347.424 141.663 354.377 148.036C338.948 160.592 329.861 177.056 326.533 173.948C324.776 172.379 322.264 151.849 324.069 148.632C334.899 145.823 334.459 137.771 332.419 130.222L350.72 113.977Z" fill="#FFC3BD"/>
<path opacity="0.2" d="M343.28 120.6L332.45 130.206C332.959 131.96 333.306 133.756 333.486 135.574C337.645 134.899 343.264 130.222 343.609 125.843C343.814 124.09 343.702 122.314 343.28 120.6Z" fill="black"/>
<path d="M314.228 89.336C307.777 90.1835 305.203 101.672 312.659 110.352C320.114 119.031 322.892 88.1902 314.228 89.336Z" fill="#263238"/>
<path d="M347.031 96.2415C348.961 109.331 350.766 116.896 345.665 124.901C337.959 136.955 320.741 134.443 314.903 122.186C309.676 111.199 307.353 91.6115 318.937 83.7953C321.477 82.0575 324.42 80.9978 327.486 80.7168C330.551 80.4358 333.637 80.9428 336.452 82.1897C339.266 83.4365 341.715 85.3819 343.567 87.8412C345.418 90.3004 346.611 93.192 347.031 96.2415Z" fill="#FFC3BD"/>
<path d="M334.773 98.2665C335.198 99.5758 335.991 100.735 337.057 101.606C338.123 102.477 339.417 103.023 340.785 103.179C342.269 105.97 342.613 109.228 341.742 112.266L346.576 112.894C346.542 110.952 347.251 109.069 348.558 107.631C349.864 106.193 351.671 105.308 353.608 105.157C352.289 110.388 350.72 115.573 348.899 120.71C354.13 116.329 358.155 110.683 360.592 104.309C361.852 101.263 362.446 97.9826 362.334 94.688C362.18 91.3633 360.712 88.2358 358.253 85.9929C356.523 84.7195 354.516 83.8748 352.396 83.5283C350.276 83.1818 348.104 83.3433 346.058 83.9996C338.776 86.0085 331.493 89.7911 334.773 98.2665Z" fill="#263238"/>
<path d="M355.977 106.538C355.705 109.851 354.131 112.922 351.598 115.076C348.224 117.917 344.724 115.343 344.143 111.199C343.609 107.479 344.739 101.515 348.851 100.213C352.964 98.9099 356.26 102.52 355.977 106.538Z" fill="#FFC3BD"/>
<path d="M227.465 200.599L243.788 253.193C243.788 253.193 259.922 248.108 266.985 252.518C271.356 255.296 275.427 258.521 279.133 262.139L267.864 204.899C267.864 204.899 252.875 187.273 227.465 200.599Z" fill="#FF8B7B"/>
<path d="M267.864 204.915L279.133 262.155C279.133 262.155 296.649 243.211 312.705 251.168L318.151 253.978L311.559 196.691C311.559 196.691 290.685 186.112 267.864 204.915Z" fill="#FF8B7B"/>
<path opacity="0.8" d="M267.864 204.915L279.133 262.155C279.133 262.155 296.649 243.211 312.705 251.168L318.151 253.978L311.559 196.691C311.559 196.691 290.685 186.112 267.864 204.915Z" fill="white"/>
<path opacity="0.8" d="M227.465 200.599L243.788 253.193C243.788 253.193 259.922 248.108 266.985 252.518C271.356 255.296 275.427 258.521 279.133 262.139L267.864 204.899C267.864 204.899 252.875 187.273 227.465 200.599Z" fill="white"/>
<path d="M279.102 261.59C265.479 257.18 252.216 252.549 241.34 262.218C237.306 246.664 231.311 231.832 226.775 216.435C223.133 204.083 223.118 206.249 229.631 202.655C235.266 199.516 261.586 196.722 267.158 211.161C269.183 216.435 278.129 260.366 279.102 261.59Z" fill="#263238"/>
<path d="M322.248 259.189C314.196 252.142 301.53 252.518 293.165 259.189C289.586 262.014 284.595 263.991 284.611 263.63L272.981 210.141L272.51 210.487C274.895 202.419 287.263 198.496 295.095 198.245C302.056 198.395 308.821 200.577 314.557 204.523C314.557 204.523 320.505 243.682 322.248 259.189Z" fill="#263238"/>
<path d="M284.612 263.63C284.612 263.63 279.903 265.09 278.067 261.245L266.594 209.796C266.594 209.796 268.524 213.17 272.495 210.408L272.966 210.063L284.596 263.552C284.605 263.577 284.61 263.603 284.612 263.63Z" fill="#263238"/>
<path opacity="0.1" d="M284.612 263.63C284.612 263.63 279.903 265.09 278.067 261.245L266.594 209.796C266.594 209.796 268.524 213.17 272.495 210.408L272.966 210.063L284.596 263.552C284.605 263.577 284.61 263.603 284.612 263.63Z" fill="white"/>
<path opacity="0.1" d="M367.011 156.464C361.125 155.601 358.692 157.704 354.612 165.74C350.845 173.164 348.773 194.556 348.773 194.556C348.051 206.265 346.56 204.946 357.641 205.794C364.735 206.343 373.713 207.834 373.713 207.834C373.713 207.834 384.605 159.022 367.011 156.464Z" fill="black"/>
<path d="M383.395 167.545C383.521 172.771 383.395 177.652 383.144 182.706C382.893 187.76 382.548 192.704 382.046 197.727C381.101 207.986 379.258 218.143 376.537 228.081L375.265 231.926L374.951 232.899V233.135L374.81 233.511L374.433 234.532C373.932 235.734 373.289 236.872 372.519 237.922C371.283 239.605 369.789 241.083 368.093 242.301C366.715 243.305 365.25 244.183 363.714 244.922C358.621 247.294 353.222 248.942 347.673 249.819C337.598 251.47 327.37 251.997 317.178 251.388L316.66 241.39L323.613 239.962C325.935 239.476 328.321 238.895 330.55 238.393C335.133 237.294 339.669 236.117 343.985 234.689C347.965 233.504 351.79 231.849 355.38 229.76C356.347 229.24 357.167 228.484 357.765 227.563C357.765 227.328 357.373 228.379 357.765 226.731L358.55 223.592C360.33 214.552 361.494 205.402 362.034 196.204C362.38 191.496 362.599 186.787 362.819 182.078C363.039 177.37 363.102 172.536 363.164 167.953L383.395 167.545Z" fill="#FFC3BD"/>
<path d="M320.804 241.924L309.818 233.998L306.49 250.697C306.49 250.697 317.336 255.406 320.443 249.913L320.804 241.924Z" fill="#FFC3BD"/>
<path d="M298.706 234.343L296.618 248.296L306.522 250.697L309.833 233.998L298.706 234.343Z" fill="#FFC3BD"/>
<path d="M383.71 157.829C391.181 168.141 388.717 202.921 388.717 202.921L354.046 199.594C354.046 199.594 350.452 180.132 355.616 164.484C361.188 147.502 374.654 145.304 383.71 157.829Z" fill="#FF8B7B"/>
<path d="M308.687 93.9345C307.324 92.1674 306.096 90.2996 305.015 88.3471C309.582 89.2574 310.053 86.9031 311.92 80.4995C314.055 73.264 322.248 68.6183 326.595 67.9434C356.761 63.0622 358.472 80.1856 358.77 82.9793C358.789 84.0103 358.501 85.0235 357.942 85.8899C357.383 86.7564 356.578 87.4369 355.631 87.8448C353.717 88.6127 351.667 88.9864 349.605 88.9435C345.226 89.1318 338.712 90.6699 334.49 89.5713C317.367 85.0825 310.775 94.17 308.687 93.9345Z" fill="#263238"/>
<path d="M285.929 318.579L306.38 329.252L316.205 334.384L311.967 345.324L302.252 341.792L278.537 333.16L285.929 318.579Z" fill="#FFC3BD"/>
<path opacity="0.2" d="M285.929 318.579L306.38 329.252L302.252 341.792L278.537 333.16L285.929 318.579Z" fill="black"/>
<path d="M251.431 347.615L229.49 354.74L218.958 358.178L214.108 347.489L223.431 343.032L246.189 332.124L251.431 347.615Z" fill="#FFC3BD"/>
<path opacity="0.2" d="M251.432 347.615L229.49 354.74L223.432 343.032L246.19 332.124L251.432 347.615Z" fill="black"/>
<path d="M384.071 286.953C383.68 285.888 383.112 284.895 382.392 284.018C375.25 275.512 349.039 275.684 333.109 277.364C325.858 278.117 316.409 281.774 306.176 286.953C304.688 284.657 302.717 282.713 300.4 281.256C287.138 273.518 269.01 270.709 251.259 270.96C277.109 270.128 306.302 272.529 306.302 272.529L376.004 266.754C380 272.888 382.742 279.753 384.071 286.953Z" fill="#A5ACB3"/>
<path opacity="0.1" d="M384.071 286.953C383.68 285.888 383.112 284.895 382.392 284.018C375.25 275.512 349.039 275.684 333.109 277.364C325.858 278.117 316.409 281.774 306.176 286.953C304.688 284.657 302.717 282.713 300.4 281.256C287.138 273.518 269.01 270.709 251.259 270.96C277.109 270.128 306.302 272.529 306.302 272.529L376.004 266.754C380 272.888 382.742 279.753 384.071 286.953Z" fill="black"/>
<path d="M310.021 315.974C306.16 322.063 298.94 325.391 291.783 326.254C284.626 327.117 277.391 325.862 270.281 324.59L251.745 321.326L221.532 315.974C215.85 314.954 210.027 313.902 204.973 311.093C188.698 302.052 185.402 291.866 193.846 284.411C196.669 282.046 199.904 280.221 203.388 279.027L203.796 278.855C213.493 275.47 223.537 273.18 233.743 272.027H234.104C239.797 271.336 245.524 270.948 251.258 270.866C269.057 270.615 287.137 273.424 300.4 281.162C302.716 282.619 304.687 284.563 306.176 286.859C311.904 295.319 314.494 308.974 310.021 315.974Z" fill="#A5ACB3"/>
<path opacity="0.1" d="M310.021 315.974C306.16 322.063 298.94 325.391 291.783 326.254C284.626 327.117 277.391 325.862 270.281 324.59L251.745 321.326L221.532 315.974C215.85 314.954 210.027 313.902 204.973 311.093C188.698 302.052 185.402 291.866 193.846 284.411C196.669 282.046 199.904 280.221 203.388 279.027L203.796 278.855C213.493 275.47 223.537 273.18 233.743 272.027H234.104C239.797 271.336 245.524 270.948 251.258 270.866C269.057 270.615 287.137 273.424 300.4 281.162C302.716 282.619 304.687 284.563 306.176 286.859C311.904 295.319 314.494 308.974 310.021 315.974Z" fill="black"/>
<path d="M198.648 281.444C198.648 281.444 181.164 290.234 185.056 307.608C185.056 307.608 187.882 318.689 220.888 325.265C253.895 331.841 295.754 339.391 295.754 339.391L299.976 325.893C299.976 325.893 256.563 288.397 223.714 280.377C215.434 278.271 206.719 278.642 198.648 281.444Z" fill="#A5ACB3"/>
<path d="M310.287 328.53C310.491 329.424 342.086 337.947 353.857 333.756C390.694 320.682 301.671 290.956 310.287 328.53Z" fill="#A5ACB3"/>
<path opacity="0.1" d="M310.287 328.53C310.491 329.424 342.086 337.947 353.857 333.756C390.694 320.682 301.671 290.956 310.287 328.53Z" fill="black"/>
<path d="M382.878 308.22C382.051 310.828 381.001 313.359 379.739 315.785C379.503 316.193 379.299 316.617 379.064 317.01C378.489 318.041 377.861 319.042 377.18 320.007L377.055 320.211C376.741 320.651 376.443 321.059 376.113 321.483C366.696 333.615 342.055 338.386 336.216 330.539C333.779 326.862 331.931 322.826 330.739 318.579C310.861 328.862 290.212 337.579 268.978 344.649C257.992 348.29 246.393 351.743 234.622 354.568L227.512 339.642L230.321 337.445C234.245 334.306 242.03 328.373 251.792 321.341C267.393 310.072 288.079 296.104 306.223 286.906C316.456 281.727 325.904 278.07 333.156 277.317C349.086 275.637 375.297 275.465 382.438 283.971C383.159 284.848 383.727 285.841 384.118 286.906C386.142 292.243 385.436 300.467 382.878 308.22Z" fill="#A5ACB3"/>
<path d="M305.155 343.534L315.64 332.626C315.862 332.405 316.145 332.256 316.452 332.197C316.76 332.138 317.078 332.173 317.366 332.296L330.691 338.041C330.977 338.14 331.235 338.303 331.447 338.519C331.659 338.734 331.819 338.996 331.913 339.283C332.007 339.57 332.033 339.875 331.99 340.174C331.947 340.473 331.836 340.758 331.664 341.007L331.507 341.195C317.523 360.5 309.534 365.853 307.604 367.783C301.953 373.308 297.292 369.007 298.516 366.81C304.041 356.953 304.057 353.375 303.664 348.682C303.652 346.858 304.17 345.069 305.155 343.534Z" fill="#E5E8F7"/>
<path d="M214.374 346.202L220.04 357.189C220.181 357.468 220.236 357.783 220.197 358.094C220.158 358.404 220.027 358.696 219.82 358.931L208.52 367.406C208.339 367.653 208.103 367.853 207.83 367.992C207.557 368.13 207.256 368.202 206.95 368.202C206.645 368.202 206.343 368.13 206.071 367.992C205.798 367.853 205.562 367.653 205.381 367.406L205.24 367.202C191.114 348.023 187.787 339.281 186.547 336.801C183.015 329.738 188.509 326.599 190.235 328.435C197.957 336.675 203.89 341.352 208.473 342.404C214.814 344.648 213.935 345.418 214.374 346.202Z" fill="#E5E8F7"/>
<g opacity="0.5">
<path d="M99.2283 317.948H175.993V298.863H99.2283V317.948Z" fill="#2D8CFF"/>
<path opacity="0.6" d="M99.4793 318.043H176.244V298.957H99.4793V318.043Z" fill="white"/>
<path opacity="0.6" d="M99.2279 318.043H158.147V298.957H99.2279V318.043Z" fill="white"/>
<path d="M99.6198 315.532L176.008 317.902L175.914 315.971L99.5728 314.967L99.6198 315.532Z" fill="#2D8CFF"/>
<path d="M176.009 306.711L99.731 302.41V303.054L176.009 308.155V306.711Z" fill="#2D8CFF"/>
<path d="M176.009 300.935L99.731 302.693V303.305L176.009 302.394V300.935Z" fill="#2D8CFF"/>
<path d="M176.212 310.446L99.9341 314.166V313.601L176.212 309.175V310.446Z" fill="#2D8CFF"/>
<path d="M99.4321 299.114L175.695 299.177V299.805H99.4321V299.114Z" fill="#2D8CFF"/>
<path d="M104.752 261.101H181.517V242.015H104.752V261.101Z" fill="#2D8CFF"/>
<path opacity="0.6" d="M104.989 261.195H181.753V242.109H104.989V261.195Z" fill="white"/>
<path opacity="0.6" d="M104.752 261.195H163.671V242.109H104.752V261.195Z" fill="white"/>
<path d="M105.114 258.683L181.503 261.053L181.424 259.123L105.083 258.118L105.114 258.683Z" fill="#2D8CFF"/>
<path d="M181.502 249.863L105.239 245.562V246.206L181.502 251.307V249.863Z" fill="#2D8CFF"/>
<path d="M181.502 244.087L105.239 245.845V246.473L181.502 245.547V244.087Z" fill="#2D8CFF"/>
<path d="M181.722 253.598L105.443 257.318V256.769L181.722 252.327V253.598Z" fill="#2D8CFF"/>
<path d="M103.779 298.596H180.543V279.511H103.779V298.596Z" fill="#2D8CFF"/>
<path opacity="0.6" d="M104.03 298.691H180.795V279.605H104.03V298.691Z" fill="white"/>
<path opacity="0.6" d="M162.871 279.605H103.952V298.691H162.871V279.605Z" fill="white"/>
<path d="M180.231 295.614L103.874 296.619L103.795 298.549L180.184 296.179L180.231 295.614Z" fill="#2D8CFF"/>
<path d="M104.281 279.762L180.56 279.841V280.468H104.281V279.762Z" fill="#2D8CFF"/>
<path d="M103.795 288.803L180.058 283.702V283.058L103.795 287.359V288.803Z" fill="#2D8CFF"/>
<path d="M180.56 281.583L104.281 283.341V283.969L180.56 283.043V281.583Z" fill="#2D8CFF"/>
<path d="M180.763 291.11L104.485 294.814V294.264L180.763 289.838V291.11Z" fill="#2D8CFF"/>
<path d="M177.892 261.525L101.159 261.917L101.049 280.61H177.892V261.525Z" fill="#2D8CFF"/>
<path opacity="0.6" d="M101.143 280.61H177.908V261.524H101.143V280.61Z" fill="white"/>
<path opacity="0.6" d="M159.968 261.525H101.049V280.61H159.968V261.525Z" fill="white"/>
<path d="M162.276 261.917H101.159V263.863H160.973L162.276 261.917Z" fill="#2D8CFF"/>
<path d="M177.453 269.733L101.159 270.439V271.004H177.453V269.733Z" fill="#2D8CFF"/>
<path d="M101.159 278.569L177.453 274.85V275.415L101.159 279.841V278.569Z" fill="#2D8CFF"/>
<path d="M101.159 271.381L177.453 272.904V273.453L101.159 272.652V271.381Z" fill="#2D8CFF"/>
<path d="M197.495 220.011H121.217V229.616H197.495V220.011Z" fill="#2D8CFF"/>
<path opacity="0.6" d="M197.495 220.011H121.217V229.616H197.495V220.011Z" fill="white"/>
<path opacity="0.6" d="M182.004 220.011H121.217V229.616H182.004V220.011Z" fill="white"/>
<path d="M197.543 226.822L121.265 227.199V227.482H197.543V226.822Z" fill="#2D8CFF"/>
<path d="M121.265 223.228L197.543 221.298V221.58L121.265 223.887V223.228Z" fill="#2D8CFF"/>
<path d="M121.013 222.711L197.291 223.495V223.778L121.013 223.37V222.711Z" fill="#2D8CFF"/>
<path d="M186.822 215.773H110.544V220.403H186.822V215.773Z" fill="#2D8CFF"/>
<path opacity="0.6" d="M186.822 215.82H110.544V220.419H186.822V215.82Z" fill="white"/>
<path opacity="0.6" d="M171.331 215.522H110.544V220.403H171.331V215.522Z" fill="white"/>
<path d="M110.591 219.304L186.854 217.358V217.656L110.591 219.964V219.304Z" fill="#2D8CFF"/>
<path d="M110.591 216.982L186.854 217.766V218.065L110.591 217.641V216.982Z" fill="#2D8CFF"/>
<path d="M193.933 211.049H117.655V215.679H193.933V211.049Z" fill="#2D8CFF"/>
<path opacity="0.6" d="M193.933 211.08H117.655V215.679H193.933V211.08Z" fill="white"/>
<path opacity="0.6" d="M178.442 210.798H117.655V215.679H178.442V210.798Z" fill="white"/>
<path d="M117.701 213.136L193.995 214.062L193.98 214.361L117.67 213.796L117.701 213.136Z" fill="#2D8CFF"/>
<path d="M117.685 212.257L193.963 213.026V213.325L117.685 212.901V212.257Z" fill="#2D8CFF"/>
<path d="M192.331 229.616H116.053V242H192.331V229.616Z" fill="#2D8CFF"/>
<path opacity="0.6" d="M192.331 229.616H116.053V242H192.331V229.616Z" fill="white"/>
<path opacity="0.6" d="M174.909 229.616H116.053V242H174.909V229.616Z" fill="white"/>
<path d="M191.845 233.461L115.583 233.038V232.692H191.845V233.461Z" fill="#2D8CFF"/>
<path d="M116.1 235.266L192.378 237.495V237.165L116.1 234.513V235.266Z" fill="#2D8CFF"/>
<path d="M192.378 229.632H120.431L122.016 231.154H192.378V229.632Z" fill="#2D8CFF"/>
<path d="M116.367 240.085L192.629 239.159V238.845L116.367 239.316V240.085Z" fill="#2D8CFF"/>
<path d="M403.933 324.321V334.397C403.698 334.427 403.482 334.541 403.326 334.719C403.169 334.897 403.083 335.125 403.083 335.362C403.083 335.599 403.169 335.827 403.326 336.005C403.482 336.183 403.698 336.297 403.933 336.327H415.469V322.343H403.933C403.67 322.343 403.419 322.447 403.233 322.633C403.048 322.818 402.944 323.07 402.944 323.332C402.944 323.594 403.048 323.846 403.233 324.031C403.419 324.216 403.67 324.321 403.933 324.321Z" fill="#2D8CFF"/>
<path opacity="0.3" d="M403.933 324.321V334.397C403.698 334.427 403.482 334.541 403.326 334.719C403.169 334.897 403.083 335.125 403.083 335.362C403.083 335.599 403.169 335.827 403.326 336.005C403.482 336.183 403.698 336.297 403.933 336.327H415.469V322.343H403.933C403.67 322.343 403.419 322.447 403.233 322.633C403.048 322.818 402.944 323.07 402.944 323.332C402.944 323.594 403.048 323.846 403.233 324.031C403.419 324.216 403.67 324.321 403.933 324.321Z" fill="white"/>
<path d="M412.879 324.336H403.933V334.397H412.879V324.336Z" fill="#2D8CFF"/>
<path opacity="0.6" d="M412.879 324.336H403.933V334.397H412.879V324.336Z" fill="white"/>
<path d="M411.01 323.348H460.434C462.569 323.348 464.295 326.032 464.295 329.359C464.295 332.686 462.569 335.354 460.434 335.354H411.01V323.348Z" fill="#2D8CFF"/>
<path opacity="0.9" d="M411.01 323.348H460.434C462.569 323.348 464.295 326.032 464.295 329.359C464.295 332.686 462.569 335.354 460.434 335.354H411.01V323.348Z" fill="white"/>
<path d="M411.011 336.328C421.166 336.328 449.731 336.5 459.901 336.328C466.854 336.202 467.231 322.861 460.404 322.39C455.695 322.061 450.751 322.39 445.98 322.39H411.011C410.776 322.42 410.56 322.535 410.404 322.713C410.247 322.89 410.161 323.119 410.161 323.356C410.161 323.592 410.247 323.821 410.404 323.999C410.56 324.176 410.776 324.291 411.011 324.321H458.285C460.513 324.321 462.114 324.321 462.993 326.973C463.731 329.249 463.495 333.895 460.451 334.397C460.1 334.421 459.749 334.421 459.399 334.397H411.011C410.776 334.427 410.56 334.542 410.404 334.719C410.247 334.897 410.161 335.126 410.161 335.362C410.161 335.599 410.247 335.828 410.404 336.005C410.56 336.183 410.776 336.298 411.011 336.328Z" fill="#2D8CFF"/>
<g opacity="0.2">
<path opacity="0.2" d="M411.011 336.328C421.166 336.328 449.731 336.5 459.901 336.328C466.854 336.202 467.231 322.861 460.404 322.39C455.695 322.061 450.751 322.39 445.98 322.39H411.011C410.776 322.42 410.56 322.535 410.404 322.713C410.247 322.89 410.161 323.119 410.161 323.356C410.161 323.592 410.247 323.821 410.404 323.999C410.56 324.176 410.776 324.291 411.011 324.321H458.285C460.513 324.321 462.114 324.321 462.993 326.973C463.731 329.249 463.495 333.895 460.451 334.397C460.1 334.421 459.749 334.421 459.399 334.397H411.011C410.776 334.427 410.56 334.542 410.404 334.719C410.247 334.897 410.161 335.126 410.161 335.362C410.161 335.599 410.247 335.828 410.404 336.005C410.56 336.183 410.776 336.298 411.011 336.328Z" fill="white"/>
</g>
<path d="M405.596 337.913V347.251C405.381 347.28 405.184 347.386 405.041 347.549C404.899 347.712 404.82 347.921 404.82 348.138C404.82 348.355 404.899 348.564 405.041 348.727C405.184 348.89 405.381 348.996 405.596 349.025H416.269V336.123H405.596C405.359 336.123 405.131 336.218 404.964 336.385C404.796 336.553 404.702 336.781 404.702 337.018C404.702 337.255 404.796 337.483 404.964 337.651C405.131 337.818 405.359 337.913 405.596 337.913Z" fill="#2D8CFF"/>
<path opacity="0.3" d="M405.596 337.913V347.251C405.381 347.28 405.184 347.386 405.041 347.549C404.899 347.712 404.82 347.921 404.82 348.138C404.82 348.355 404.899 348.564 405.041 348.727C405.184 348.89 405.381 348.996 405.596 349.025H416.269V336.123H405.596C405.359 336.123 405.131 336.218 404.964 336.385C404.796 336.553 404.702 336.781 404.702 337.018C404.702 337.255 404.796 337.483 404.964 337.651C405.131 337.818 405.359 337.913 405.596 337.913Z" fill="white"/>
<path d="M413.946 337.928H405.659V347.251H413.946V337.928Z" fill="#2D8CFF"/>
<path opacity="0.6" d="M413.946 337.928H405.659V347.251H413.946V337.928Z" fill="white"/>
<path d="M412.203 337.018H457.97C459.948 337.018 461.549 339.514 461.549 342.574C461.549 345.635 459.979 348.13 457.97 348.13H412.203V337.018Z" fill="#2D8CFF"/>
<path opacity="0.9" d="M412.203 337.018H457.97C459.948 337.018 461.549 339.514 461.549 342.574C461.549 345.635 459.979 348.13 457.97 348.13H412.203V337.018Z" fill="white"/>
<path d="M412.205 349.025C421.622 349.025 448.068 349.197 457.485 349.025C463.92 348.915 464.265 336.563 457.956 336.123C453.546 335.825 449.01 336.123 444.599 336.123H412.205C411.967 336.123 411.74 336.218 411.572 336.385C411.404 336.553 411.31 336.781 411.31 337.018C411.31 337.255 411.404 337.483 411.572 337.651C411.74 337.818 411.967 337.913 412.205 337.913H455.994C458.05 337.913 459.525 337.913 460.326 340.377C461.016 342.48 460.797 346.78 457.972 347.251C457.653 347.275 457.333 347.275 457.014 347.251H412.205C411.99 347.28 411.793 347.386 411.65 347.549C411.507 347.712 411.428 347.921 411.428 348.138C411.428 348.355 411.507 348.564 411.65 348.727C411.793 348.89 411.99 348.996 412.205 349.025Z" fill="#2D8CFF"/>
<path d="M400.337 350.987V362.099C400.079 362.131 399.84 362.256 399.668 362.451C399.495 362.646 399.399 362.898 399.399 363.158C399.399 363.419 399.495 363.671 399.668 363.866C399.84 364.061 400.079 364.186 400.337 364.218C404.559 364.218 408.797 364.218 413.035 364.218V348.805H400.337C400.048 348.805 399.771 348.92 399.566 349.125C399.362 349.329 399.247 349.607 399.247 349.896C399.247 350.185 399.362 350.463 399.566 350.667C399.771 350.872 400.048 350.987 400.337 350.987Z" fill="#2D8CFF"/>
<path opacity="0.3" d="M400.337 350.987V362.099C400.079 362.131 399.84 362.256 399.668 362.451C399.495 362.646 399.399 362.898 399.399 363.158C399.399 363.419 399.495 363.671 399.668 363.866C399.84 364.061 400.079 364.186 400.337 364.218C404.559 364.218 408.797 364.218 413.035 364.218V348.805H400.337C400.048 348.805 399.771 348.92 399.566 349.125C399.362 349.329 399.247 349.607 399.247 349.896C399.247 350.185 399.362 350.463 399.566 350.667C399.771 350.872 400.048 350.987 400.337 350.987Z" fill="white"/>
<path d="M410.211 351.002H400.338V362.099H410.211V351.002Z" fill="#2D8CFF"/>
<path opacity="0.6" d="M410.211 351.002H400.338V362.099H410.211V351.002Z" fill="white"/>
<path d="M408.123 349.935H462.601C464.955 349.935 466.854 352.886 466.854 356.543C466.854 360.2 464.955 363.166 462.601 363.166H408.123V349.935Z" fill="#2D8CFF"/>
<path opacity="0.9" d="M408.123 349.935H462.601C464.955 349.935 466.854 352.886 466.854 356.543C466.854 360.2 464.955 363.166 462.601 363.166H408.123V349.935Z" fill="white"/>
<path d="M408.122 364.218C419.329 364.218 450.813 364.422 462.004 364.218C469.679 364.092 470.087 349.386 462.569 348.868C457.327 348.507 451.927 348.868 446.67 348.868H408.122C407.864 348.899 407.625 349.025 407.452 349.22C407.28 349.415 407.184 349.667 407.184 349.927C407.184 350.188 407.28 350.44 407.452 350.635C407.625 350.83 407.864 350.955 408.122 350.987H460.23C462.694 350.987 464.452 350.987 465.394 353.922C466.226 356.433 465.959 361.55 462.6 362.099C462.219 362.13 461.836 362.13 461.454 362.099H408.091C407.832 362.13 407.594 362.256 407.421 362.451C407.248 362.646 407.153 362.898 407.153 363.158C407.153 363.419 407.248 363.671 407.421 363.866C407.594 364.061 407.832 364.186 408.091 364.218H408.122Z" fill="#2D8CFF"/>
<g opacity="0.2">
<path opacity="0.2" d="M408.122 364.218C419.329 364.218 450.813 364.422 462.004 364.218C469.679 364.092 470.087 349.386 462.569 348.868C457.327 348.507 451.927 348.868 446.67 348.868H408.122C407.864 348.899 407.625 349.025 407.452 349.22C407.28 349.415 407.184 349.667 407.184 349.927C407.184 350.188 407.28 350.44 407.452 350.635C407.625 350.83 407.864 350.955 408.122 350.987H460.23C462.694 350.987 464.452 350.987 465.394 353.922C466.226 356.433 465.959 361.55 462.6 362.099C462.219 362.13 461.836 362.13 461.454 362.099H408.091C407.832 362.13 407.594 362.256 407.421 362.451C407.248 362.646 407.153 362.898 407.153 363.158C407.153 363.419 407.248 363.671 407.421 363.866C407.594 364.061 407.832 364.186 408.091 364.218H408.122Z" fill="black"/>
</g>
<path d="M65.481 361.722L80.3913 338.337L106.32 329.955L142.748 335.653L144.93 357.422L126.865 360.843L111.342 358.489L102.71 355.13L92.7591 363.653L78.9317 366.054L69.7343 364.893L65.481 361.722Z" fill="#2D8CFF"/>
<path opacity="0.1" d="M65.481 361.722L80.3913 338.337L106.32 329.955L142.748 335.653L144.93 357.422L126.865 360.843L111.342 358.489L102.71 355.13L92.7591 363.653L78.9317 366.054L69.7343 364.893L65.481 361.722Z" fill="black"/>
<path opacity="0.2" d="M111.359 330.74L108.707 357.469L102.711 355.13L95.8369 361.016L101.691 331.462L106.321 329.955L111.359 330.74Z" fill="black"/>
<path d="M64.5405 365.458C64.5405 365.458 90.3276 376.177 103.512 357.61C103.512 357.61 130.523 370.857 144.931 357.453L142.435 353.372C142.435 353.372 135.435 364.83 102.429 352.556C102.429 352.556 88.3971 370.857 65.4822 361.753L64.5405 365.458Z" fill="#2D8CFF"/>
<path opacity="0.8" d="M64.5405 365.458C64.5405 365.458 90.3276 376.177 103.512 357.61C103.512 357.61 130.523 370.857 144.931 357.453L142.435 353.372C142.435 353.372 135.435 364.83 102.429 352.556C102.429 352.556 88.3971 370.857 65.4822 361.753L64.5405 365.458Z" fill="white"/>
<path d="M83.9233 342.323L102.616 327.318L129 325.859L162.744 337.144L160.673 354.173L142.764 353.325L128.372 348.585L120.76 344.379L109.632 348.978L95.9458 348.193L87.392 345.54L83.9233 342.323Z" fill="#2D8CFF"/>
<path opacity="0.1" d="M83.9233 342.323L102.616 327.318L129 325.859L162.744 337.144L160.673 354.173L142.764 353.325L128.372 348.585L120.76 344.379L109.632 348.978L95.9458 348.193L87.392 345.54L83.9233 342.323Z" fill="black"/>
<path opacity="0.2" d="M133.678 327.413L126.05 347.298L120.76 344.379L113.07 347.549L124.292 326.11L129 325.859L133.678 327.413Z" fill="black"/>
<path d="M82.2759 344.975C82.2759 344.975 104.893 358.081 121.027 346.404C121.027 346.404 144.334 361.659 160.642 354.157L159.072 350.579C159.072 350.579 150.204 357.987 120.98 342.339C115.36 345.628 108.964 347.362 102.452 347.362C95.9395 347.362 89.5444 345.628 83.9239 342.339L82.2759 344.975Z" fill="#2D8CFF"/>
<path opacity="0.8" d="M82.2759 344.975C82.2759 344.975 104.893 358.081 121.027 346.404C121.027 346.404 144.334 361.659 160.642 354.157L159.072 350.579C159.072 350.579 150.204 357.987 120.98 342.339C115.36 345.628 108.964 347.362 102.452 347.362C95.9395 347.362 89.5444 345.628 83.9239 342.339L82.2759 344.975Z" fill="white"/>
<path d="M429.468 289.666C426.785 290.199 424.057 290.472 421.322 290.482C415.788 290.51 410.303 289.442 405.184 287.338C400.066 285.234 395.415 282.136 391.501 278.224L390.292 279.448C394.368 283.501 399.205 286.708 404.525 288.884C409.845 291.06 415.543 292.163 421.29 292.13C424.173 292.121 427.049 291.832 429.876 291.267C429.548 290.893 429.37 290.413 429.373 289.917C429.4 289.831 429.432 289.748 429.468 289.666Z" fill="#2D8CFF"/>
<path d="M434.564 288.291L426.229 288.314L426.297 312.406L434.631 312.383L434.564 288.291Z" fill="#2D8CFF"/>
<g opacity="0.2">
<path opacity="0.2" d="M434.563 288.292L426.229 288.315L426.296 312.407L434.63 312.384L434.563 288.292Z" fill="black"/>
</g>
<path d="M405.109 322.296C405.109 316.018 416.41 310.901 430.394 310.854C444.379 310.807 455.726 315.877 455.742 322.155C439.403 326.738 422.132 326.847 405.737 322.468L405.109 322.296Z" fill="#2D8CFF"/>
<path d="M453.441 219.299L393.183 280.319L394.412 281.532L454.67 220.512L453.441 219.299Z" fill="#2D8CFF"/>
<path d="M465.048 248.152C465.05 242.389 463.908 236.683 461.688 231.364C459.468 226.046 456.214 221.221 452.115 217.17L450.907 218.394C456.34 223.777 460.207 230.537 462.092 237.95C463.976 245.362 463.808 253.148 461.605 260.473C459.401 267.797 455.246 274.384 449.585 279.526C443.923 284.669 436.969 288.174 429.467 289.666C429.46 289.776 429.46 289.886 429.467 289.995C429.463 290.492 429.642 290.972 429.969 291.345C439.901 289.314 448.824 283.912 455.229 276.055C461.633 268.197 465.124 258.367 465.111 248.231L465.048 248.152Z" fill="#2D8CFF"/>
<path d="M446.717 272.087C442.429 276.529 436.92 279.599 430.887 280.91C424.854 282.221 418.568 281.714 412.823 279.452C407.079 277.191 402.133 273.277 398.613 268.205C395.093 263.133 393.155 257.132 393.045 250.959C392.936 244.786 394.659 238.72 397.997 233.526C401.335 228.333 406.137 224.245 411.798 221.781C417.459 219.317 423.723 218.587 429.799 219.682C435.874 220.778 441.489 223.651 445.932 227.937C451.888 233.689 455.317 241.571 455.464 249.85C455.612 258.129 452.465 266.127 446.717 272.087Z" fill="#2D8CFF"/>
<path d="M436.044 261.791L435.039 260.818C442.227 253.363 448.066 239.771 445.319 228.157L446.685 227.843C449.541 239.928 443.499 254.069 436.044 261.791Z" fill="#2D8CFF"/>
<path d="M403.147 272.919L403.43 271.538C415.123 273.877 428.542 267.567 435.699 260.128L436.719 261.101C429.264 268.823 415.343 275.352 403.147 272.919Z" fill="#2D8CFF"/>
<path d="M413.6 240.101L412.58 239.128C420.035 231.406 433.956 224.861 446.151 227.309L445.869 228.675C434.176 226.336 420.788 232.661 413.6 240.101Z" fill="#2D8CFF"/>
<path d="M402.613 272.401C399.757 260.316 405.753 246.175 413.255 238.453L414.259 239.426C407.071 246.865 401.232 260.473 403.979 272.087L402.613 272.401Z" fill="#2D8CFF"/>
<path d="M445.504 227.573L402.133 272.485L403.149 273.467L446.52 228.554L445.504 227.573Z" fill="#2D8CFF"/>
<path d="M417.358 219.68L416.376 220.696L454.402 257.416L455.383 256.4L417.358 219.68Z" fill="#2D8CFF"/>
<path d="M402 228.702L401.019 229.718L445.919 273.078L446.901 272.062L402 228.702Z" fill="#2D8CFF"/>
<path d="M394.03 244.843L393.048 245.859L430.069 281.609L431.05 280.593L394.03 244.843Z" fill="#2D8CFF"/>
<g opacity="0.2">
<path opacity="0.2" d="M436.043 261.791L435.038 260.818C442.226 253.363 448.065 239.771 445.318 228.157L446.684 227.843C449.54 239.928 443.498 254.069 436.043 261.791Z" fill="black"/>
<path opacity="0.2" d="M403.146 272.919L403.429 271.538C415.122 273.877 428.541 267.567 435.698 260.128L436.718 261.101C429.263 268.823 415.342 275.352 403.146 272.919Z" fill="black"/>
<path opacity="0.2" d="M413.599 240.101L412.579 239.128C420.034 231.406 433.955 224.861 446.15 227.309L445.868 228.675C434.175 226.336 420.787 232.661 413.599 240.101Z" fill="black"/>
<path opacity="0.2" d="M402.613 272.401C399.756 260.316 405.752 246.175 413.254 238.453L414.258 239.426C407.07 246.865 401.231 260.473 403.978 272.087L402.613 272.401Z" fill="black"/>
<path opacity="0.2" d="M445.503 227.574L402.132 272.486L403.148 273.467L446.519 228.555L445.503 227.574Z" fill="black"/>
<path opacity="0.2" d="M417.357 219.68L416.375 220.696L454.401 257.417L455.382 256.401L417.357 219.68Z" fill="black"/>
<path opacity="0.2" d="M401.999 228.702L401.018 229.718L445.919 273.078L446.9 272.062L401.999 228.702Z" fill="black"/>
<path opacity="0.2" d="M394.029 244.843L393.047 245.859L430.068 281.609L431.049 280.593L394.029 244.843Z" fill="black"/>
</g>
</g>
<path d="M212.198 58.2991C211.122 54.3989 209.073 50.8358 206.243 47.9438C203.414 45.0518 199.896 42.9256 196.021 41.7646C192.145 40.6036 188.038 40.4457 184.084 41.3057C180.131 42.1658 176.46 44.0156 173.417 46.6818C170.374 49.348 168.057 52.7433 166.685 56.5494C165.312 60.3554 164.929 64.4477 165.57 68.4425C166.211 72.4374 167.857 76.2039 170.351 79.3892C172.846 82.5745 176.109 85.0741 179.834 86.6538C181.435 87.3105 182.725 88.5521 183.444 90.1264L184.256 91.9625L207.252 85.717L207.014 83.7184C206.849 81.9859 207.334 80.2538 208.376 78.8594C210.519 75.9409 211.976 72.5763 212.638 69.0163C213.3 65.4563 213.149 61.7929 212.198 58.2991Z" fill="#FFDA66"/>
<path d="M191.763 92.0126C191.763 92.0126 188.302 81.1578 182.194 76.3488L185.579 75.4244L185.842 70.2156L191.375 78.2224L190.926 68.4794L196.384 77.3605L196.934 72.3641L201.768 71.115C199.123 77.0551 198.65 83.7355 200.431 89.989" stroke="white" stroke-linecap="round" stroke-linejoin="round"/>
<path d="M196.11 90.1888C192.037 91.3005 189.764 95.9846 191.038 100.644C192.312 105.303 196.634 108.138 200.706 107.064C204.778 105.99 207.039 101.281 205.778 96.6217C204.516 91.9625 200.182 89.0896 196.11 90.1888Z" fill="#2E353A"/>
<path d="M203.954 102.78L195.76 105.016C193.802 105.548 191.716 105.322 189.918 104.381C188.121 103.441 186.745 101.856 186.067 99.9445L183.381 92.3624C183.327 92.2126 183.305 92.0533 183.316 91.8945C183.327 91.7357 183.371 91.581 183.445 91.44C183.519 91.2991 183.622 91.1751 183.746 91.0759C183.87 90.9766 184.014 90.9043 184.168 90.8635L206.752 84.7054C206.905 84.6629 207.066 84.6528 207.224 84.6758C207.382 84.6988 207.533 84.7544 207.668 84.8389C207.803 84.9235 207.919 85.0353 208.009 85.1671C208.098 85.2989 208.159 85.448 208.188 85.6047L209.725 93.4866C210.112 95.4779 209.732 97.5419 208.662 99.2652C207.592 100.989 205.91 102.244 203.954 102.78Z" fill="#FFDA66"/>
<path opacity="0.4" d="M203.954 102.78L195.76 105.016C193.802 105.548 191.716 105.322 189.918 104.381C188.121 103.441 186.745 101.856 186.067 99.9445L183.381 92.3624C183.327 92.2126 183.305 92.0533 183.316 91.8945C183.327 91.7357 183.371 91.581 183.445 91.44C183.519 91.2991 183.622 91.1751 183.746 91.0759C183.87 90.9766 184.014 90.9043 184.168 90.8635L206.752 84.7054C206.905 84.6629 207.066 84.6528 207.224 84.6758C207.382 84.6988 207.533 84.7544 207.668 84.8389C207.803 84.9235 207.919 85.0353 208.009 85.1671C208.098 85.2989 208.159 85.448 208.188 85.6047L209.725 93.4866C210.112 95.4779 209.732 97.5419 208.662 99.2652C207.592 100.989 205.91 102.244 203.954 102.78Z" fill="white"/>
<path d="M164.223 82.1821C161.985 81.7709 159.715 81.5578 157.44 81.5451C156.309 81.5383 155.178 81.6009 154.055 81.7325C153.493 81.8199 152.931 81.8824 152.394 82.0198C152.119 82.0947 151.844 82.1322 151.582 82.2321L150.795 82.4819L149.895 82.7692L150.433 81.9823C151.948 79.7393 153.153 77.3025 154.017 74.7375C154.447 73.4651 154.761 72.1566 154.954 70.8278C155.05 70.1695 155.108 69.5065 155.129 68.8417C155.167 68.1802 155.167 67.5171 155.129 66.8556C155.081 66.2006 154.99 65.5496 154.854 64.907L154.617 63.9577L154.305 63.0208C154.083 62.4084 153.811 61.8152 153.493 61.2471C153.186 60.6742 152.839 60.1233 152.456 59.5983C152.07 59.0743 151.653 58.5738 151.207 58.0994L150.52 57.3999L149.771 56.7503C149.283 56.3006 148.709 55.9509 148.197 55.5012C147.685 55.0515 147.072 54.8017 146.51 54.4395L145.261 53.6151L146.648 52.953C147.31 52.6283 148.009 52.241 148.671 51.8413C149.333 51.4416 149.995 51.0294 150.645 50.5922C151.932 49.7147 153.155 48.7462 154.305 47.6943C154.867 47.1697 155.416 46.6325 155.954 46.0704C156.491 45.5083 156.978 44.9088 157.44 44.3092C157.902 43.7096 158.352 43.0601 158.689 42.4231C159.093 41.7844 159.456 41.1211 159.776 40.437C160.106 39.7574 160.39 39.0563 160.625 38.3385L160.95 37.2642L161.187 36.1525C161.327 35.4188 161.41 34.6755 161.437 33.9291C161.503 32.4233 161.369 30.9152 161.037 29.4448L160.788 28.3331L160.438 27.2464C160.226 26.5094 159.888 25.8224 159.613 25.1104C159.339 24.3984 158.939 23.7364 158.602 23.0369L156.815 19.2896L160.238 21.488C160.838 21.8877 161.487 22.275 162.199 22.6372C162.911 22.9994 163.573 23.3492 164.273 23.6615C165.666 24.312 167.101 24.8671 168.57 25.3228C169.307 25.5351 170.044 25.735 170.781 25.8974C171.518 26.0657 172.264 26.1908 173.016 26.2721C173.758 26.3673 174.505 26.4132 175.252 26.4095C175.992 26.4039 176.73 26.3539 177.463 26.2596L178.537 26.0722L179.599 25.7849C180.285 25.5598 180.953 25.2843 181.598 24.9605C181.919 24.8059 182.228 24.6263 182.522 24.4234C182.835 24.2414 183.132 24.0324 183.409 23.7989C183.982 23.3527 184.525 22.8687 185.033 22.3499C185.532 21.8108 185.996 21.2391 186.419 20.6386C186.86 20.035 187.256 19.4005 187.606 18.74C187.993 18.1029 188.256 17.3785 188.593 16.7039C188.93 16.0294 189.13 15.28 189.405 14.568L190.966 10.4709L191.741 14.7428C191.871 15.4415 192.051 16.1302 192.278 16.8039C192.936 18.8929 193.941 20.8563 195.251 22.6122C196.114 23.7587 197.136 24.7765 198.286 25.6351C198.853 26.0671 199.454 26.4515 200.085 26.7842C200.714 27.1264 201.37 27.4187 202.046 27.6586C202.724 27.8954 203.416 28.0873 204.119 28.2332C204.833 28.3768 205.554 28.4769 206.28 28.533C207.008 28.5705 207.738 28.5705 208.466 28.533C209.203 28.533 209.94 28.4331 210.677 28.3706C211.414 28.3081 212.151 28.1333 212.875 28.0208L215.061 27.4962L217.222 26.8467L219.358 26.0847L222.319 25.023L220.62 27.6586C220.308 28.1208 219.995 28.6829 219.708 29.22C219.421 29.7571 219.158 30.3067 218.909 30.8813C218.417 32.0014 218.028 33.1636 217.747 34.3538C217.468 35.5282 217.329 36.7317 217.335 37.9388C217.348 39.1219 217.555 40.2949 217.947 41.4113L218.284 42.2357L218.709 43.1475C219.014 43.654 219.361 44.1345 219.746 44.584C220.131 45.0301 220.549 45.4476 220.995 45.8331C221.457 46.2351 221.945 46.6065 222.456 46.9448C222.963 47.2904 223.488 47.6073 224.03 47.8941C224.567 48.1939 225.142 48.4188 225.704 48.6936L227.453 49.3556L229.251 49.9177L230.5 50.3174L229.451 51.1293C228.745 51.6779 228.081 52.2792 227.465 52.9281C226.843 53.5785 226.267 54.2713 225.741 55.0016C225.454 55.3638 225.229 55.751 224.979 56.1258C224.739 56.5033 224.522 56.8954 224.33 57.2999C224.11 57.6994 223.926 58.1174 223.78 58.549C223.607 58.9527 223.469 59.3706 223.368 59.7981C223.28 60.2353 223.131 60.66 223.081 61.0472L222.956 62.3838C222.956 62.8335 222.956 63.2832 223.031 63.7328C223.056 64.1812 223.131 64.6253 223.256 65.0569C223.337 65.4822 223.454 65.9 223.605 66.306L224.117 67.5551C224.289 67.9908 224.503 68.4091 224.754 68.8042L225.454 70.0533L225.716 70.4905H225.229C223.382 70.4954 221.543 70.7389 219.758 71.215C218.864 71.4518 218.001 71.7913 217.185 72.2268C216.982 72.3356 216.786 72.4565 216.598 72.589C216.395 72.7037 216.206 72.8421 216.036 73.0012C215.85 73.1375 215.674 73.2878 215.511 73.4509L215.024 73.963L215.486 73.4259C215.637 73.2483 215.804 73.0852 215.986 72.9387C216.155 72.7725 216.339 72.622 216.535 72.4891C216.723 72.3642 216.91 72.2143 217.11 72.1018C217.918 71.6176 218.776 71.2239 219.671 70.9277C221.469 70.3435 223.34 70.0114 225.229 69.9409L225.017 70.3781L224.242 69.129C223.961 68.7369 223.719 68.3186 223.518 67.8799L222.931 66.6308C222.744 66.1878 222.602 65.7276 222.506 65.2567C222.35 64.7999 222.249 64.326 222.206 63.8452C222.206 63.3706 222.094 62.8834 222.081 62.4088V60.9473C222.081 60.4727 222.256 59.998 222.331 59.5233C222.426 59.0469 222.56 58.5791 222.731 58.1243C222.867 57.6589 223.047 57.2073 223.268 56.7753C223.456 56.3447 223.673 55.9273 223.918 55.5262C224.145 55.0967 224.395 54.6797 224.667 54.2771C225.206 53.4804 225.803 52.7247 226.453 52.0162C227.104 51.2929 227.81 50.6205 228.564 50.0051L228.802 51.2542L226.915 50.7171L225.054 50.0551C224.442 49.7928 223.805 49.5555 223.231 49.2432C222.632 48.951 222.052 48.6214 221.494 48.2564C220.923 47.8977 220.376 47.5013 219.858 47.0697C219.344 46.6355 218.868 46.1592 218.434 45.6458C217.968 45.1309 217.55 44.5749 217.185 43.9844L216.673 43.0851L216.26 42.1233C215.78 40.8515 215.51 39.5098 215.461 38.1511C215.412 36.7881 215.533 35.4243 215.823 34.0915C216.101 32.7811 216.494 31.4978 216.997 30.2568C217.247 29.6322 217.522 29.0076 217.822 28.4331C218.122 27.8585 218.434 27.2589 218.821 26.6468L220.07 28.2207L217.847 29.0326L215.586 29.7321C214.812 29.9445 214.037 30.1194 213.263 30.3067C212.488 30.4941 211.701 30.6065 210.902 30.6939C210.102 30.8045 209.298 30.8712 208.491 30.8938C207.659 30.9397 206.825 30.9397 205.993 30.8938C205.179 30.8347 204.37 30.7263 203.57 30.569C202.762 30.4066 201.965 30.1939 201.184 29.932C200.405 29.6546 199.645 29.3249 198.91 28.9452C198.172 28.5618 197.466 28.119 196.799 27.6211C195.468 26.6402 194.282 25.4752 193.277 24.1611C192.28 22.8669 191.441 21.4578 190.779 19.9641C190.441 19.2234 190.145 18.4644 189.892 17.6907C189.622 16.9024 189.405 16.097 189.242 15.28L191.578 15.4548C191.291 16.2293 191.029 17.0162 190.716 17.7782C190.396 18.5493 190.038 19.3038 189.642 20.0391C189.278 20.7882 188.86 21.5104 188.393 22.2C187.903 22.8997 187.369 23.5672 186.794 24.1986C186.198 24.8214 185.555 25.3977 184.87 25.9223C184.533 26.1936 184.174 26.4359 183.796 26.6468C183.436 26.8872 183.06 27.1042 182.672 27.2964C181.895 27.683 181.089 28.0088 180.261 28.2707L179.012 28.5829L177.763 28.8078C176.935 28.9132 176.1 28.9591 175.265 28.9452C174.429 28.9468 173.595 28.8926 172.767 28.7828C171.926 28.6831 171.092 28.5371 170.268 28.3456C169.456 28.1707 168.657 27.9459 167.87 27.6961C166.305 27.2062 164.777 26.6051 163.298 25.8974C162.549 25.5601 161.824 25.1854 161.112 24.7981C160.4 24.4109 159.701 23.9987 158.964 23.549L160.6 22.0626C160.963 22.8121 161.35 23.5366 161.675 24.311C162.009 25.0743 162.305 25.8539 162.561 26.6468L162.936 27.8959L163.211 29.145C163.379 29.9707 163.504 30.8046 163.586 31.6433C163.634 32.4753 163.634 33.3094 163.586 34.1415C163.548 34.9805 163.447 35.8155 163.286 36.6397L163.011 37.8888L162.636 39.1379C162.363 39.9412 162.038 40.7257 161.662 41.4862C161.298 42.2433 160.88 42.9738 160.413 43.6722C159.956 44.3549 159.464 45.0136 158.939 45.6458C158.402 46.2953 157.852 46.8949 157.278 47.5069C156.703 48.119 156.091 48.6561 155.479 49.2057C154.233 50.2773 152.919 51.2662 151.544 52.1661C150.853 52.6158 150.154 53.0321 149.446 53.4152C148.721 53.8149 148.009 54.1897 147.222 54.5394L147.31 53.053C147.897 53.4527 148.559 53.8149 149.084 54.2271C149.608 54.6393 150.233 55.064 150.745 55.5637L151.544 56.2881L152.281 57.0626C152.762 57.595 153.212 58.1538 153.63 58.7364C154.044 59.3302 154.415 59.9521 154.742 60.5976C155.074 61.2334 155.358 61.8931 155.591 62.5712L155.904 63.6079L156.128 64.6572C156.261 65.3625 156.344 66.0762 156.378 66.7931C156.467 69.6237 155.974 72.4424 154.929 75.0747C153.934 77.6817 152.594 80.1436 150.945 82.3945L150.582 81.8949L151.419 81.6575C151.707 81.5701 151.994 81.5326 152.281 81.4702C152.843 81.3452 153.418 81.3078 153.992 81.2328C155.141 81.1643 156.292 81.1643 157.44 81.2328C159.724 81.354 161.993 81.6716 164.223 82.1821Z" fill="#FFDA66"/>
<defs>
<linearGradient id="paint0_linear" x1="258.034" y1="5.59215" x2="258.034" y2="408.864" gradientUnits="userSpaceOnUse">
<stop stop-color="white" stop-opacity="0.33"/>
<stop offset="0.679925" stop-color="white" stop-opacity="0"/>
</linearGradient>
</defs>
</svg>
